<?xml version="1.0" encoding="utf-8"?>
<!-- Generator: Adobe Illustrator 23.0.0, SVG Export Plug-In . SVG Version: 6.00 Build 0)  -->
<svg version="1.1" id="Ebene_1" xmlns="http://www.w3.org/2000/svg" xmlns:xlink="http://www.w3.org/1999/xlink" x="0px" y="0px"
	 viewBox="0 0 157.68 71.6" style="enable-background:new 0 0 157.68 71.6;" xml:space="preserve">
<g>
	<path d="M0,0.02h20.65l26.95,39.6V0.02h20.85V71.6H47.61L20.8,32.3v39.3L0,48.81V0.02z"/>
</g>
<g>
	<path d="M91.81,0.02h32.86c6.48,0,11.71,0.88,15.7,2.64c3.99,1.76,7.28,4.28,9.89,7.57c2.6,3.29,4.49,7.11,5.66,11.47
		c1.17,4.36,1.76,8.98,1.76,13.87c0,7.65-0.87,13.58-2.61,17.8c-1.74,4.22-4.16,7.75-7.25,10.6c-3.09,2.85-6.41,4.75-9.96,5.69
		c-4.85,1.3-9.25,1.95-13.18,1.95H91.81V0.02z M113.93,16.23v39.11h5.42c4.62,0,7.91-0.51,9.86-1.54s3.48-2.82,4.59-5.37
		c1.11-2.56,1.66-6.7,1.66-12.43c0-7.58-1.24-12.78-3.71-15.58c-2.47-2.8-6.58-4.2-12.3-4.2H113.93z"/>
</g>
<polygon points="47.52,20.84 92.98,20.84 92.98,0 34.53,0 "/>
<polygon style="fill:none;" points="337.63,210.05 339.74,210.05 339.74,210.05 337.63,210.05 "/>
</svg>
